Coordinates
version=1
nRows=22
nColumns=24
inDegrees=yes

Units are S.I. units (second, meters, Newtons, ...)
Angles are in degrees.

endheader
time	pelvis_tilt	pelvis_list	pelvis_rotation	pelvis_tx	pelvis_ty	pelvis_tz	hip_flexion_r	hip_adduction_r	hip_rotation_r	knee_angle_r	ankle_angle_r	subtalar_angle_r	mtp_angle_r	hip_flexion_l	hip_adduction_l	hip_rotation_l	knee_angle_l	ankle_angle_l	subtalar_angle_l	mtp_angle_l	lumbar_extension	lumbar_bending	lumbar_rotation
      4.84000000	     -9.44267994	     -9.70075010	      3.69820098	     -1.54101417	     -0.02091472	      0.44383463	     20.15320469	     11.66356780	     -4.33864925	    -12.62028870	     -6.70019303	     -4.18969335	      4.00522651	     16.72970433	    -10.08941867	      5.66799288	    -59.47222201	    -28.41367227	     -5.64785141	     26.99814997	      8.42847408	      7.86352198	     -8.12963195
      4.84500000	     -9.29898144	     -9.65946747	      3.72238515	     -1.53540186	     -0.02027542	      0.44463009	     19.48411637	     11.74512191	     -4.21950454	    -12.41746849	     -6.35947291	     -4.11324282	      4.05134534	     17.47334471	     -9.96963634	      5.74646585	    -60.43336345	    -28.07727790	     -7.56899480	     25.81675377	      8.21845661	      7.74950438	     -7.82270595
      4.85000000	     -9.16097318	     -9.59977821	      3.72918845	     -1.52981586	     -0.01960112	      0.44544450	     18.82135303	     11.81535765	     -4.09003975	    -12.21449047	     -6.08068039	     -4.09312505	      4.06578176	     18.20093984	     -9.83706916	      5.80813269	    -61.27910425	    -27.70610825	     -9.30175075	     24.82020664	      8.01305240	      7.61960924	     -7.47466337
      4.85500000	     -9.04623495	     -9.42892433	      3.72543187	     -1.52424805	     -0.01886238	      0.44624759	     18.16623447	     11.77153315	     -3.82913142	    -12.01204375	     -5.79031002	     -4.11167720	      4.06925556	     18.90741167	     -9.57089417	      5.85668924	    -61.98952267	    -27.30061588	    -10.80371429	     23.90078767	      7.82725065	      7.37122242	     -7.14467758
      4.86000000	     -8.94132049	     -9.23578073	      3.69164093	     -1.51872342	     -0.01809919	      0.44707058	     17.52564423	     11.71242226	     -3.54254051	    -11.81822917	     -5.54186111	     -4.16636165	      4.04614596	     19.59961411	     -9.28816012	      5.87967408	    -62.59593812	    -26.80829904	    -12.02876309	     23.10568088	      7.64584982	      7.10647164	     -6.73714915
      4.86500000	     -8.87075598	     -8.95492252	      3.66331390	     -1.51320341	     -0.01731027	      0.44792148	     16.92286327	     11.56197405	     -3.22888187	    -11.64327730	     -5.30089491	     -4.31347610	      3.98723075	     20.28587309	     -8.90767103	      5.89783739	    -63.05498027	    -26.24983696	    -12.99286832	     22.61691042	      7.50265201	      6.74063125	     -6.38245117
      4.87000000	     -8.80028026	     -8.69657356	      3.57646906	     -1.50771445	     -0.01650670	      0.44877377	     16.31060570	     11.44584450	     -2.82705236	    -11.45017435	     -5.12071408	     -4.46518969	      3.90392447	     20.95137516	     -8.57485353	      5.83994656	    -63.42614622	    -25.66641587	    -13.81446304	     22.11631355	      7.35498056	      6.41821277	     -5.91666405
      4.87500000	     -8.78300641	     -8.37287206	      3.59562577	     -1.50226874	     -0.01569864	      0.44948966	     15.76452239	     11.21671214	     -2.56106232	    -11.25824903	     -4.91167669	     -4.57825302	      3.86116143	     21.66116010	     -8.10621105	      5.93482079	    -63.65375561	    -25.01044116	    -14.30695968	     22.08334025	      7.27606879	      6.00499731	     -5.60346242
      4.88000000	     -8.76082492	     -7.95692164	      3.37816251	     -1.49684342	     -0.01482552	      0.45050010	     15.21044708	     10.96613831	     -2.01015297	    -11.11342867	     -4.76124581	     -4.82594365	      3.71710363	     22.26594306	     -7.66116927	      5.69333185	    -63.74961050	    -24.30483115	    -14.70289651	     21.87019930	      7.15638833	      5.53359902	     -5.00696554
      4.88500000	     -8.76822700	     -7.53218824	      3.25855913	     -1.49145827	     -0.01396604	      0.45135661	     14.68647759	     10.66315285	     -1.57246956	    -10.93779086	     -4.61059826	     -5.02976145	      3.61382558	     22.90607215	     -7.15442872	      5.57693889	    -63.73826840	    -23.54332512	    -14.85701199	     21.88503163	      7.08522724	      5.04108488	     -4.54637228
      4.89000000	     -8.79787982	     -7.08043589	      3.10965093	     -1.48608949	     -0.01311624	      0.45221457	     14.18406468	     10.32808005	     -1.12604648	    -10.75698829	     -4.45410816	     -5.19789281	      3.52733777	     23.53488434	     -6.63122964	      5.42338327	    -63.61223463	    -22.74914989	    -14.84987406	     22.01866689	      7.03882788	      4.52906393	     -4.05763969
      4.89500000	     -8.84532694	     -6.59865207	      2.94161942	     -1.48077471	     -0.01228304	      0.45308055	     13.71122213	      9.95531631	     -0.69774016	    -10.58676518	     -4.28709559	     -5.32467288	      3.46467008	     24.15236317	     -6.08637695	      5.24052556	    -63.37435868	    -21.93643777	    -14.72905264	     22.22815642	      7.00708077	      3.98940065	     -3.57897281
      4.90000000	     -8.90632724	     -6.11958452	      2.75849473	     -1.47543106	     -0.01147764	      0.45395657	     13.22975487	      9.58002071	     -0.27137840	    -10.36594364	     -4.11861474	     -5.41199645	      3.41099993	     24.75910980	     -5.55944848	      5.04074853	    -63.04024199	    -21.11751463	    -14.46028857	     22.48142514	      7.00111950	      3.45762649	     -3.06176603
      4.90500000	     -8.97343812	     -5.63938351	      2.55381594	     -1.47012562	     -0.01071552	      0.45481022	     12.76030756	      9.19618778	      0.13411851	    -10.14143077	     -3.94307915	     -5.45460002	      3.38327153	     25.34851718	     -5.04135294	      4.82047902	    -62.61687971	    -20.28508414	    -14.11618763	     22.74488527	      7.00299742	      2.93745258	     -2.54925653
      4.91000000	     -9.04533635	     -5.16978642	      2.35783627	     -1.46485071	     -0.01001802	      0.45563628	     12.30553280	      8.81147548	      0.49666732	     -9.92058017	     -3.75075052	     -5.45839721	      3.38344894	     25.92831279	     -4.53969116	      4.59567775	    -62.10974270	    -19.47467474	    -13.77681309	     22.97933441	      7.01326198	      2.42854538	     -2.07561317
      4.91500000	     -9.11216550	     -4.73010456	      2.12015969	     -1.45953325	     -0.00936590	      0.45646405	     11.82311407	      8.45701992	      0.86315199	     -9.64771427	     -3.56787713	     -5.40449418	      3.39286734	     26.47889218	     -4.09086978	      4.35589345	    -61.53385502	    -18.67118927	    -13.33889317	     23.19117840	      7.03243485	      1.96987798	     -1.53827119
      4.92000000	     -9.17871992	     -4.30950720	      1.89327765	     -1.45424386	     -0.00880382	      0.45724537	     11.36043635	      8.11170405	      1.18432156	     -9.39900653	     -3.36675187	     -5.34038787	      3.41978639	     27.01577066	     -3.66587005	      4.11115004	    -60.88557621	    -17.90452705	    -12.99393530	     23.33337076	      7.05398674	      1.53472475	     -1.06873061
      4.92500000	     -9.23182890	     -3.93466115	      1.65252764	     -1.44890487	     -0.00830294	      0.45801499	     10.86708937	      7.80937822	      1.50939018	     -9.11379124	     -3.17263057	     -5.23628464	      3.44647361	     27.52578205	     -3.30426484	      3.86963257	    -60.18497901	    -17.18989853	    -12.63555345	     23.40282554	      7.07527512	      1.15553703	     -0.55691009
      4.93000000	     -9.27524611	     -3.58918656	      1.40944797	     -1.44356435	     -0.00788367	      0.45874708	     10.37570203	      7.53162358	      1.81841071	     -8.84519513	     -2.97016700	     -5.13377474	      3.47133463	     28.01057799	     -2.98384043	      3.61850915	    -59.42305850	    -16.52334878	    -12.36746623	     23.38825834	      7.09381417	      0.81716674	     -0.07617626
      4.93500000	     -9.31940562	     -3.27330588	      1.17177344	     -1.43822711	     -0.00756291	      0.45944847	      9.89975868	      7.28013776	      2.09247052	     -8.59479384	     -2.76203529	     -5.05043243	      3.48987106	     28.48342684	     -2.69634939	      3.37822625	    -58.60283927	    -15.92897722	    -12.22874031	     23.31570032	      7.11378696	      0.51039450	      0.35083109
      4.94000000	     -9.32970037	     -2.99608777	      0.89197862	     -1.43283011	     -0.00726743	      0.46012094	      9.37907937	      7.06626957	      2.42678381	     -8.33460999	     -2.56458274	     -4.93444008	      3.49163651	     28.89600846	     -2.47978494	      3.09959404	    -57.73058572	    -15.38565638	    -12.10311869	     23.13098093	      7.11327831	      0.27111631	      0.85706216
      4.94500000	     -9.33517929	     -2.74562914	      0.62913389	     -1.42744829	     -0.00706359	      0.46073959	      8.86728580	      6.87334783	      2.74397572	     -8.09477823	     -2.36288139	     -4.86170831	      3.46702542	     29.29392751	     -2.28732812	      2.83832677	    -56.80981258	    -14.89683708	    -12.08609849	     22.84830531	      7.10655493	      0.06009809	      1.30622819
